<mxfile host="Electron" modified="2024-06-15T16:57:19.156Z" agent="Mozilla/5.0 (Macintosh; Intel Mac OS X 10_15_7) AppleWebKit/537.36 (KHTML, like Gecko) draw.io/24.4.13 Chrome/124.0.6367.207 Electron/30.0.6 Safari/537.36" etag="5zH-3TY1aldj2KzHC3xy" version="24.4.13" type="device">
  <diagram name="Page-1" id="c4acf3e9-155e-7222-9cf6-157b1a14988f">
    <mxGraphModel dx="1004" dy="765" grid="1" gridSize="10" guides="1" tooltips="1" connect="1" arrows="1" fold="1" page="1" pageScale="1" pageWidth="850" pageHeight="1100" background="none" math="0" shadow="0">
      <root>
        <mxCell id="0" />
        <mxCell id="1" parent="0" />
        <mxCell id="8Zp8TRDCZ4M0XE3BQyfe-8" style="edgeStyle=orthogonalEdgeStyle;rounded=0;orthogonalLoop=1;jettySize=auto;html=1;exitX=1;exitY=0.5;exitDx=0;exitDy=0;entryX=0;entryY=0.5;entryDx=0;entryDy=0;" edge="1" parent="1" source="8Zp8TRDCZ4M0XE3BQyfe-1" target="8Zp8TRDCZ4M0XE3BQyfe-3">
          <mxGeometry relative="1" as="geometry" />
        </mxCell>
        <mxCell id="8Zp8TRDCZ4M0XE3BQyfe-11" style="edgeStyle=orthogonalEdgeStyle;rounded=0;orthogonalLoop=1;jettySize=auto;html=1;exitX=0.5;exitY=1;exitDx=0;exitDy=0;entryX=0.5;entryY=0;entryDx=0;entryDy=0;" edge="1" parent="1" source="8Zp8TRDCZ4M0XE3BQyfe-1" target="8Zp8TRDCZ4M0XE3BQyfe-2">
          <mxGeometry relative="1" as="geometry" />
        </mxCell>
        <mxCell id="8Zp8TRDCZ4M0XE3BQyfe-1" value="ログイン" style="rounded=1;whiteSpace=wrap;html=1;" vertex="1" parent="1">
          <mxGeometry x="40" y="80" width="120" height="60" as="geometry" />
        </mxCell>
        <mxCell id="8Zp8TRDCZ4M0XE3BQyfe-10" style="edgeStyle=orthogonalEdgeStyle;rounded=0;orthogonalLoop=1;jettySize=auto;html=1;exitX=1;exitY=0.5;exitDx=0;exitDy=0;entryX=0;entryY=0.5;entryDx=0;entryDy=0;" edge="1" parent="1" source="8Zp8TRDCZ4M0XE3BQyfe-2" target="8Zp8TRDCZ4M0XE3BQyfe-3">
          <mxGeometry relative="1" as="geometry" />
        </mxCell>
        <mxCell id="8Zp8TRDCZ4M0XE3BQyfe-2" value="会員登録" style="rounded=1;whiteSpace=wrap;html=1;" vertex="1" parent="1">
          <mxGeometry x="40" y="200" width="120" height="60" as="geometry" />
        </mxCell>
        <mxCell id="8Zp8TRDCZ4M0XE3BQyfe-12" style="edgeStyle=orthogonalEdgeStyle;rounded=0;orthogonalLoop=1;jettySize=auto;html=1;exitX=1;exitY=0.5;exitDx=0;exitDy=0;entryX=0;entryY=0.5;entryDx=0;entryDy=0;startArrow=classic;startFill=1;" edge="1" parent="1" source="8Zp8TRDCZ4M0XE3BQyfe-3" target="8Zp8TRDCZ4M0XE3BQyfe-4">
          <mxGeometry relative="1" as="geometry" />
        </mxCell>
        <mxCell id="8Zp8TRDCZ4M0XE3BQyfe-13" style="edgeStyle=orthogonalEdgeStyle;rounded=0;orthogonalLoop=1;jettySize=auto;html=1;exitX=1;exitY=0.5;exitDx=0;exitDy=0;entryX=0;entryY=0.5;entryDx=0;entryDy=0;startArrow=classic;startFill=1;" edge="1" parent="1" source="8Zp8TRDCZ4M0XE3BQyfe-3" target="8Zp8TRDCZ4M0XE3BQyfe-6">
          <mxGeometry relative="1" as="geometry" />
        </mxCell>
        <mxCell id="8Zp8TRDCZ4M0XE3BQyfe-3" value="チャット一覧" style="rounded=1;whiteSpace=wrap;html=1;" vertex="1" parent="1">
          <mxGeometry x="220" y="130" width="120" height="60" as="geometry" />
        </mxCell>
        <mxCell id="8Zp8TRDCZ4M0XE3BQyfe-4" value="チャット" style="rounded=1;whiteSpace=wrap;html=1;" vertex="1" parent="1">
          <mxGeometry x="400" y="80" width="120" height="60" as="geometry" />
        </mxCell>
        <mxCell id="8Zp8TRDCZ4M0XE3BQyfe-14" style="edgeStyle=orthogonalEdgeStyle;rounded=0;orthogonalLoop=1;jettySize=auto;html=1;exitX=1;exitY=0.5;exitDx=0;exitDy=0;entryX=0;entryY=0.5;entryDx=0;entryDy=0;startArrow=classic;startFill=1;" edge="1" parent="1" source="8Zp8TRDCZ4M0XE3BQyfe-6" target="8Zp8TRDCZ4M0XE3BQyfe-7">
          <mxGeometry relative="1" as="geometry" />
        </mxCell>
        <mxCell id="8Zp8TRDCZ4M0XE3BQyfe-6" value="マイページ" style="rounded=1;whiteSpace=wrap;html=1;" vertex="1" parent="1">
          <mxGeometry x="400" y="200" width="120" height="60" as="geometry" />
        </mxCell>
        <mxCell id="8Zp8TRDCZ4M0XE3BQyfe-7" value="設定" style="rounded=1;whiteSpace=wrap;html=1;" vertex="1" parent="1">
          <mxGeometry x="580" y="200" width="120" height="60" as="geometry" />
        </mxCell>
      </root>
    </mxGraphModel>
  </diagram>
</mxfile>
